# Blender 3.4.1
# www.blender.org
mtllib minegistics_tree_2.mtl
o tree_2
v -0.364424 -0.002374 -0.344470
v -0.364424 -0.127374 -0.469470
v -0.364424 -0.002374 -0.469470
v -0.114424 -0.502374 -0.344470
v -0.239424 -0.502374 -0.344470
v -0.114424 -0.502374 -0.469470
v -0.239424 -0.502374 -0.469470
v -0.114424 -0.377374 -0.469470
v -0.239424 -0.377374 -0.469470
v -0.364424 -0.377374 -0.594470
v 0.010576 -0.377374 -0.469470
v 0.010576 -0.377374 -0.594470
v -0.114424 -0.377374 -0.344470
v -0.364424 -0.377374 -0.219470
v -0.239424 -0.377374 -0.344470
v 0.010576 -0.377374 -0.219470
v 0.010576 -0.377374 -0.344470
v -0.239424 -0.127374 -0.469470
v -0.239424 -0.127374 -0.594470
v -0.364424 -0.127374 -0.594470
v 0.010576 -0.127374 -0.469470
v -0.114424 -0.127374 -0.469470
v 0.010576 -0.127374 -0.594470
v -0.239424 -0.127374 -0.219470
v -0.114424 -0.127374 -0.344470
v -0.239424 -0.127374 -0.344470
v -0.364424 -0.127374 -0.219470
v -0.364424 -0.127374 -0.344470
v 0.010576 -0.127374 -0.219470
v 0.010576 -0.127374 -0.344470
v 0.010576 -0.002374 -0.344470
v 0.010576 -0.002374 -0.469470
v -0.114424 -0.002374 -0.469470
v -0.239424 -0.002374 -0.469470
v -0.114424 -0.127374 -0.594470
v -0.114424 -0.002374 -0.594470
v -0.239424 -0.002374 -0.594470
v -0.114424 -0.127374 -0.219470
v -0.114424 -0.002374 -0.219470
v -0.239424 -0.002374 -0.219470
v -0.114424 -0.002374 -0.344470
v -0.239424 -0.002374 -0.344470
vn -0.0000 -0.0000 1.0000
vn -1.0000 -0.0000 -0.0000
vn -0.0000 -0.0000 -1.0000
vn -0.0000 1.0000 -0.0000
vn 1.0000 -0.0000 -0.0000
vn -0.0000 -1.0000 -0.0000
vt 0.777778 0.666667
vt 0.222222 0.333333
vt 0.333333 0.111111
vt 0.333333 0.111111
vt 0.111111 0.222222
vt 0.111111 0.333333
vt 0.444444 0.111111
vt 0.333333 0.222222
vt 0.999713 0.554913
vt 0.888889 0.333811
vt 0.776042 0.444444
vt 0.888602 0.554913
vt 0.888602 0.443775
vt 0.887153 0.444444
vt 0.889340 0.445729
vt 0.888889 0.444922
vt 0.776042 0.555556
vt 0.888602 0.554886
vt 0.889340 0.334618
vt 0.887153 0.555556
vt 1.000451 0.445729
vt 0.777778 0.444922
vt 0.777778 0.888889
vt 0.999713 0.554886
vt 1.000451 0.334618
vt 0.888889 0.888889
vt 1.000000 1.000000
vt 0.000000 0.000000
vt 0.666667 0.000000
vt 0.666667 0.888889
vt 0.333333 0.555556
vt 0.666667 1.000000
vt 0.666667 0.333333
vt 0.333333 0.444444
vt 0.999713 0.666024
vt 0.777778 0.333811
vt 0.777778 0.777778
vt 1.000000 0.666667
vt 0.333333 0.000000
vt 0.000000 0.555555
vt 0.888602 0.666024
vt 0.999713 0.443775
vt 0.888889 0.777778
vt 0.666667 0.666667
vt 0.333333 0.555555
vt 0.333333 0.777778
vt 0.666667 0.777778
vt 0.333333 0.666667
vt 0.111111 0.333333
vt 0.333333 0.222222
vt 0.000000 0.333333
vt 0.333333 0.333333
vt 0.888889 0.111111
vt 0.888889 0.000000
vt 0.000000 0.222222
vt 0.111111 0.555555
vt 0.333333 0.444444
vt 0.555556 0.555556
vt 0.111111 0.444444
vt 0.333333 0.333333
vt 0.777778 0.888889
vt 0.888889 0.333333
vt 0.000000 0.555555
vt 0.555556 0.444444
vt 0.333333 0.333333
vt 0.111111 0.777778
vt 0.333333 0.000000
vt 0.222222 0.444444
vt 0.888889 0.888889
vt 0.777778 0.777778
vt 0.888889 0.777778
vt 0.222222 0.333333
vt 0.333333 0.111111
vt 0.000000 0.777778
vt 0.333333 0.222222
vt 0.888889 0.666667
vt 0.222222 0.222222
vt 0.333333 0.777778
vt 0.555556 0.777778
vt 0.333333 0.555555
vt 0.222222 0.555555
vt 0.888889 1.000000
vt 0.555556 0.666667
vt 0.777778 1.000000
vt 0.666667 0.666667
vt 0.666667 0.111111
vt 0.444444 0.444444
vt 0.666667 0.555556
vt 0.666667 0.222222
vt 0.444444 0.333333
vt 0.666667 0.888889
vt 0.555556 0.222222
vt 0.444444 0.222222
vt 0.000000 0.444444
vt 0.888889 0.222222
vt 0.777778 1.000000
vt 1.000000 0.222222
vt 0.666667 1.000000
vt 0.555556 0.333333
vt 1.000000 0.111111
vt 0.444444 0.333333
vt 0.333333 0.444445
vt 0.222222 0.777778
vt 0.777778 0.666667
vt 0.222222 0.888889
vt 0.666667 0.666667
vt 0.555556 0.000000
vt 0.111111 0.888889
vt 0.444444 0.000000
vt 0.777778 0.888889
vt 0.666667 0.777778
vt 0.555556 0.111111
vt 0.777778 0.777778
vt 0.444444 0.111111
s 0
f 26/71/1 42/113/1 1/1/1 28/76/1
f 28/77/2 1/2/2 3/6/2 2/5/2
f 2/4/3 3/7/3 34/93/3 18/50/3
f 3/8/4 1/3/4 42/114/4 34/93/4
f 4/9/1 13/35/1 15/41/1 5/12/1
f 5/13/2 15/42/2 9/24/2 7/18/2
f 7/19/3 9/25/3 8/21/3 6/15/3
f 6/16/5 8/22/5 13/36/5 4/10/5
f 5/14/6 7/20/6 6/17/6 4/11/6
f 13/37/6 8/23/6 11/30/6 17/47/6
f 13/37/6 17/47/6 16/44/6 14/38/6 10/27/6 12/32/6 11/30/6 8/23/6 9/26/6 15/43/6
f 27/75/2 28/77/2 2/5/2 20/55/2 10/28/2 14/39/2
f 10/29/3 20/54/3 19/53/3 35/95/3 23/62/3 12/33/3
f 24/66/1 27/74/1 14/40/1 16/45/1 29/78/1 38/103/1
f 20/55/4 2/5/4 18/49/4 19/51/4
f 35/94/4 22/59/4 21/56/4 23/63/4
f 28/77/4 27/75/4 24/65/4 26/72/4
f 30/83/5 29/79/5 16/46/5 17/48/5 11/31/5 12/34/5 23/64/5 21/58/5
f 25/68/4 38/102/4 29/80/4 30/81/4
f 34/93/4 42/114/4 41/112/4 33/92/4
f 30/82/1 31/84/1 41/110/1 25/69/1
f 22/60/3 33/90/3 32/87/3 21/57/3
f 21/58/5 32/88/5 31/85/5 30/83/5
f 33/92/4 41/112/4 31/86/4 32/89/4
f 18/50/2 34/93/2 37/101/2 19/52/2
f 19/53/3 37/100/3 36/97/3 35/95/3
f 35/96/5 36/98/5 33/91/5 22/61/5
f 37/101/4 34/93/4 33/92/4 36/99/4
f 38/103/1 39/105/1 40/108/1 24/66/1
f 24/67/2 40/109/2 42/114/2 26/73/2
f 25/70/5 41/111/5 39/106/5 38/104/5
f 42/114/4 40/109/4 39/107/4 41/112/4
o tree_5
v 0.501090 -0.502374 -0.108485
v 0.376090 -0.502374 -0.108485
v 0.501090 -0.502374 -0.233485
v 0.376090 -0.502374 -0.233485
v 0.376090 -0.377374 -0.233485
v 0.251090 -0.377374 -0.358485
v 0.626090 -0.377374 -0.358485
v 0.501090 -0.377374 -0.233485
v 0.626090 -0.377374 0.016515
v 0.626090 -0.127374 -0.233485
v 0.626090 -0.127374 -0.358485
v 0.626090 -0.002374 0.016515
v 0.501090 -0.002374 -0.233485
v 0.501090 -0.002374 -0.358485
v 0.626090 -0.002374 -0.233485
v 0.251090 -0.002374 -0.358485
v 0.251090 -0.002374 0.016515
v 0.501090 -0.127374 -0.358485
v 0.251090 -0.377374 0.016515
v 0.376090 -0.377374 -0.108485
v 0.501090 -0.377374 -0.108485
v 0.501090 -0.127374 -0.233485
vn -0.0000 -0.0000 1.0000
vn -1.0000 -0.0000 -0.0000
vn -0.0000 -0.0000 -1.0000
vn 1.0000 -0.0000 -0.0000
vn -0.0000 -1.0000 -0.0000
vn -0.0000 1.0000 -0.0000
vt 0.778026 0.333712
vt 0.777778 0.444445
vt 0.777675 0.666120
vt 0.666915 0.333712
vt 0.666005 0.555528
vt 0.777675 0.555009
vt 0.888889 0.333333
vt 0.777778 0.555556
vt 0.888786 0.666120
vt 0.666005 0.666640
vt 0.888889 0.444444
vt 0.888786 0.555009
vt 0.777116 0.666640
vt 0.777778 0.444444
vt 0.777778 0.333333
vt 0.666667 0.000000
vt 0.000000 0.000000
vt 0.333333 0.333333
vt 0.000000 0.666667
vt 0.666667 0.333333
vt 0.000000 0.333333
vt 0.777778 0.333333
vt 0.666667 0.555556
vt 0.666667 0.333333
vt 0.000000 1.000000
vt 1.000000 0.333333
vt 0.333333 0.333333
vt 0.222222 0.777778
vt 0.444444 0.777778
vt 0.444444 0.666667
vt 0.222222 0.666667
vt 0.444444 0.888889
vt 0.000000 0.555556
vt 0.333333 1.000000
vt 0.666667 0.333333
vt 0.666667 0.666667
vt 0.666667 0.777778
vt 0.444444 0.555555
vt 0.555556 0.777778
vt 0.111111 0.666667
vt 0.777778 0.777778
vt 0.333333 0.555555
vt 0.333333 0.777778
vt 0.444444 0.666667
vt 0.444444 0.777778
vt 0.000000 0.333333
vt 0.333333 0.666667
vt 0.333333 0.333333
vt 0.666667 0.000000
vt 0.333333 0.333333
vt 0.666667 0.333333
vt 0.333333 0.888889
vt 0.111111 0.555556
vt 0.777778 0.666667
vt 1.000000 0.000000
vt 0.333333 0.000000
vt 0.666915 0.444823
vt 0.777116 0.555528
vt 0.777778 0.444445
vt 0.778026 0.444823
vt 0.666667 0.444445
vt 0.333333 0.777778
vt 0.666667 0.666667
vt 0.555556 0.666667
s 0
f 43/115/7 63/174/7 62/171/7 44/118/7
f 44/119/8 62/172/8 47/127/8 46/124/8
f 46/125/9 47/128/9 50/136/9 45/121/9
f 45/122/10 50/137/10 63/175/10 43/116/10
f 44/120/11 46/126/11 45/123/11 43/117/11
f 47/129/12 62/173/12 63/175/12 50/138/12
f 49/133/10 53/145/10 52/142/10 57/157/10 54/148/10 51/139/10
f 51/140/7 54/149/7 59/163/7 61/169/7
f 61/170/11 48/130/11 49/134/11 51/141/11
f 60/166/12 64/176/12 52/143/12 53/146/12
f 59/164/8 58/160/8 48/131/8 61/170/8
f 58/161/9 56/154/9 60/167/9 53/147/9 49/135/9 48/132/9
f 60/168/10 56/155/10 55/151/10 64/177/10
f 59/165/12 54/150/12 57/158/12 55/152/12 56/156/12 58/162/12
f 64/178/9 55/153/9 57/159/9 52/144/9
o tree_6
v 0.009537 -0.502374 0.174927
v -0.115463 -0.502374 0.174927
v 0.009537 -0.502374 0.049927
v -0.115463 -0.502374 0.049927
v -0.115463 -0.377374 0.174927
v 0.009537 -0.377374 0.049927
v -0.115463 -0.377374 0.049927
v -0.240463 -0.377374 -0.075073
v 0.134537 -0.377374 -0.075073
v 0.134538 -0.377374 0.299927
v -0.240462 -0.377374 0.299927
v 0.009537 -0.377374 0.174927
v -0.240463 -0.002374 -0.075073
v 0.134537 -0.002374 -0.075073
v -0.240462 -0.002374 0.299927
v 0.134538 -0.002374 0.299927
vn -0.0000 -0.0000 1.0000
vn -1.0000 -0.0000 -0.0000
vn -0.0000 -0.0000 -1.0000
vn 1.0000 -0.0000 -0.0000
vn -0.0000 -1.0000 -0.0000
vn -0.0000 1.0000 -0.0000
vt 0.889109 0.334088
vt 0.777778 0.444444
vt 0.888892 0.444442
vt 0.777781 0.334088
vt 0.777778 0.444444
vt 0.888892 0.555553
vt 0.777778 0.666667
vt 0.666667 0.444444
vt 0.777781 0.444442
vt 0.666667 0.444444
vt 0.666667 0.666667
vt 0.777781 0.555553
vt 0.777781 0.444440
vt 0.777778 0.555556
vt 0.777778 0.555556
vt 0.666667 0.333333
vt 0.666667 0.555556
vt 0.333333 1.000000
vt 0.000000 0.333333
vt 0.333333 0.666667
vt 0.000000 1.000000
vt 0.333333 0.333333
vt 0.666667 0.666667
vt 0.000000 0.666667
vt 0.000000 0.333333
vt 0.666667 0.333333
vt 0.333333 0.666667
vt 0.000000 0.666667
vt 0.000000 0.000000
vt 0.889109 0.444440
vt 0.777778 0.333333
vt 0.333333 0.333333
vt 1.000000 0.333333
vt 0.333333 0.000000
vt 0.666667 0.333333
vt 1.000000 0.000000
vt 0.333333 0.666667
vt 0.333333 0.000000
vt 0.666667 0.333333
vt 0.333333 0.333333
vt 0.666667 0.000000
s 0
f 65/179/13 76/208/13 69/191/13 66/182/13
f 66/183/14 69/192/14 71/195/14 68/188/14
f 68/189/15 71/195/15 70/193/15 67/185/15
f 67/186/16 70/194/16 76/209/16 65/180/16
f 66/184/17 68/190/17 67/187/17 65/181/17
f 74/202/17 75/205/17 72/196/17 73/199/17
f 80/218/13 79/215/13 75/206/13 74/203/13
f 72/197/14 75/207/14 79/216/14 77/210/14
f 73/200/16 78/212/16 80/219/16 74/204/16
f 78/213/15 73/201/15 72/198/15 77/210/15
f 79/217/18 80/219/18 78/214/18 77/211/18
