# Blender 3.4.1
# www.blender.org
mtllib train_2.mtl
o Cube.004
v 1.250000 -3.067778 -1.250001
v 1.250000 -3.067778 1.249999
v -1.250000 -3.067778 1.249998
v -1.250000 -3.067778 -1.250001
v -1.249999 -0.567777 -1.250000
v 1.250001 -0.567777 -1.249999
v -1.250000 -0.567778 1.250000
v 1.250000 -0.567778 1.250001
v -1.081250 -2.899028 1.081249
v -1.081249 -0.567778 1.081250
v 1.081251 -0.567778 1.081250
v 1.081250 -2.899028 1.081249
v 1.081250 -2.899027 -1.081251
v 1.081250 -0.567778 -1.081249
v -1.081250 -0.567778 -1.081249
v -1.081250 -2.899027 -1.081251
vn -0.0000 -1.0000 -0.0000
vn -0.0000 -0.0000 -1.0000
vn -0.0000 -0.0000 1.0000
vn -1.0000 -0.0000 -0.0000
vn 1.0000 -0.0000 -0.0000
vn -0.0000 1.0000 -0.0000
vt 0.250000 0.010000
vt 0.487500 0.975000
vt 0.487500 0.525000
vt 0.250000 0.490000
vt 0.487500 0.975000
vt 0.262500 0.525000
vt 0.000000 0.490000
vt 0.262500 0.975000
vt 0.262500 0.525000
vt 0.000000 0.010000
vt 0.262500 0.975000
vt 0.487500 0.525000
vt 0.487500 0.975000
vt 0.240625 0.990625
vt 0.250000 1.000000
vt 0.500000 1.000000
vt 0.487500 0.975000
vt 0.239062 0.543750
vt 0.246875 0.971875
vt 0.250000 1.000000
vt 0.262500 0.975000
vt 0.000000 1.000000
vt 0.500000 1.000000
vt 0.262500 0.975000
vt 0.004687 0.543750
vt 0.000000 0.500000
vt 0.033750 0.457600
vt 0.015625 0.531250
vt 0.015625 1.000000
vt 0.015625 0.968750
vt 0.234375 1.000000
vt 0.007812 0.506250
vt 0.015625 0.531250
vt 0.216250 0.457600
vt 0.234375 0.531250
vt 0.216250 0.042400
vt 0.015625 0.531250
vt 0.015625 1.000000
vt 0.237500 0.503125
vt 0.240430 0.513281
vt 0.234375 1.000000
vt 0.235938 0.978125
vt 0.234375 0.968750
vt 0.033750 0.042400
vt 0.234375 0.531250
s 1
usemtl Material
f 1/1/1 2/4/1 3/7/1 4/10/1
f 1/2/2 4/11/2 5/15/2 6/16/2
f 7/20/3 3/8/3 2/5/3 8/23/3
f 3/9/4 7/21/4 5/13/4 4/12/4
f 6/17/5 8/24/5 2/6/5 1/3/5
f 9/28/2 10/29/2 11/31/2 12/35/2
f 13/37/3 14/38/3 15/41/3 16/45/3
f 16/44/6 9/27/6 12/34/6 13/36/6
f 16/45/5 15/41/5 10/29/5 9/28/5
f 14/38/4 13/37/4 12/35/4 11/31/4
f 14/39/6 11/32/6 8/25/6 6/18/6
f 14/40/6 6/19/6 5/14/6 15/42/6
f 15/43/6 5/15/6 7/22/6 10/30/6
f 10/30/6 7/22/6 8/26/6 11/33/6
o Cube.004_Cube.005
v -1.052944 -1.877661 -0.007067
v -1.052944 -0.877661 -0.007067
v -1.052944 -0.877661 -1.007067
v -1.052944 -1.877661 -1.007067
v -0.052944 -0.877661 -1.007067
v -0.052944 -1.877661 -1.007067
v -0.052944 -0.877661 -0.007067
v -0.052944 -1.877661 -0.007067
vn -1.0000 -0.0000 -0.0000
vn -0.0000 -0.0000 -1.0000
vn 1.0000 -0.0000 -0.0000
vn -0.0000 -0.0000 1.0000
vn -0.0000 -1.0000 -0.0000
vn -0.0000 1.0000 -0.0000
vt 0.750000 0.500000
vt 0.503500 0.993000
vt 0.750000 1.000000
vt 0.746500 0.993000
vt 0.500000 1.000000
vt 0.750000 1.000000
vt 0.746500 0.507000
vt 0.500000 0.500000
vt 0.750000 0.500000
vt 0.503500 0.507000
vt 0.500000 1.000000
vt 0.750000 1.000000
vt 0.503500 0.507000
vt 0.500000 0.500000
vt 0.750000 0.501096
vt 0.746500 0.507000
vt 0.500001 0.998904
vt 1.000000 1.000000
vt 0.503500 0.993000
vt 0.500000 0.500000
vt 1.000000 0.500000
vt 0.746500 0.993000
s 0
usemtl Material
f 17/46/7 18/48/7 19/50/7 20/53/7
f 20/54/8 19/51/8 21/56/8 22/59/8
f 22/60/9 21/57/9 23/62/9 24/65/9
f 24/66/10 23/63/10 18/48/10 17/46/10
f 20/55/11 22/61/11 24/67/11 17/47/11
f 21/58/12 19/52/12 18/49/12 23/64/12
o Cube.005
v -0.625000 -3.067779 2.086566
v -0.625000 -3.067779 3.337328
v -1.250000 -3.067778 1.250648
v -1.250000 -3.067778 1.250150
v -0.624999 -0.692778 1.250152
v -1.250000 -0.692778 1.250151
v -1.249999 -0.567778 1.250151
v -0.624999 -0.567778 1.250152
v 0.625000 -2.567779 3.337329
v 0.625000 -3.067779 3.337329
v 1.250000 -3.067778 1.250648
v 1.250000 -2.567778 1.250648
v -1.250000 -0.692778 1.250649
v -1.250000 -0.567778 1.250649
v 1.250000 -2.567778 1.250150
v 1.250000 -3.067778 1.250150
v 0.540626 -2.899028 1.249046
v 0.540626 -0.567778 1.249048
v 1.081251 -0.567778 1.249048
v 1.081251 -2.899028 1.249046
v -0.540625 -2.899028 1.248311
v -0.540625 -0.567778 1.248313
v -1.081250 -0.567778 1.248313
v -1.081250 -2.899028 1.248311
v 0.540625 -2.899028 1.248311
v 1.081250 -2.899028 1.248311
v -1.081249 -0.567778 1.249047
v -1.081249 -2.899028 1.249046
v 1.081250 -0.567778 1.248312
v 1.250000 -0.567778 1.250650
v 1.250001 -0.567778 1.250152
v 0.625000 -0.567778 1.250650
v 1.250001 -1.057420 1.250152
v 1.250000 -1.057420 1.250650
v 1.250000 -1.182420 1.250650
v 1.250001 -1.067778 1.250152
v 1.250000 -1.567778 1.250648
v 1.250001 -1.567778 1.250152
v 1.250000 -2.067778 1.250648
v 1.250000 -2.067778 1.250151
v -1.250000 -2.567778 1.250648
v -1.250000 -2.567778 1.250150
v -1.250000 -2.067778 1.250648
v -1.250000 -2.067778 1.250150
v -1.250000 -1.567778 1.250648
v -1.250000 -1.567778 1.250151
v -1.250000 -1.182420 1.250649
v -1.250000 -1.067778 1.250151
v 0.625000 -1.057421 2.815660
v 0.625000 -1.067779 3.337330
v 0.625000 -1.567779 3.337330
v 0.625000 -2.067779 3.337330
v -0.625000 -2.567778 1.250150
v -0.625000 -2.067778 1.250150
v -0.625000 -1.567778 1.250151
v -0.624999 -1.067778 1.250151
v 0.625000 -1.567778 1.250152
v 0.625000 -1.067778 1.250152
v 0.000000 -1.567778 1.250151
v 0.000001 -1.067778 1.250151
v 0.625000 -2.067778 1.250151
v 0.000000 -2.067778 1.250150
v 0.625000 -2.567778 1.250150
v 0.000000 -2.567778 1.250150
v 0.625000 -3.067779 2.086566
v 0.000000 -3.067779 2.086566
v -0.625000 -2.567779 3.337329
v -0.625000 -2.067779 3.337330
v 0.000000 -2.567779 3.337329
v 0.000000 -2.067779 3.337330
v -0.625000 -1.567779 3.337330
v 0.000000 -1.567779 3.337330
v -0.625000 -1.067779 3.337330
v 0.000000 -1.067779 3.337330
v -1.250000 -1.057420 1.250649
v -0.625000 -1.057421 2.815660
v 0.000000 -0.942779 2.815660
v -0.625000 -0.567778 1.250650
v -0.540624 -0.567778 1.249048
v 0.000000 -0.567778 1.250650
v 0.000001 -0.567778 1.249048
v 0.625001 -0.567778 1.250152
v 0.540625 -0.567778 1.248313
v 0.000001 -0.567778 1.250152
v 0.000000 -0.567778 1.248313
v -0.540624 -2.899028 1.249046
v 0.000000 -2.899028 1.249046
v 0.000000 -2.899028 1.248311
v 0.000000 -3.067779 3.337329
v 1.250001 -0.692778 1.250152
v 0.625000 -0.692778 1.250152
v 0.000001 -0.692778 1.250152
v -0.624999 -0.942778 1.250151
v 0.000001 -0.942778 1.250151
v -0.624999 -0.817778 1.250151
v 0.000001 -0.817778 1.250151
v 0.625000 -0.942778 1.250152
v 0.625000 -0.817778 1.250152
v 1.250001 -0.817778 1.250152
v -0.003051 -0.807420 1.772320
v 0.621949 -0.807420 1.772320
v 0.000000 -0.932421 2.293989
v 0.625000 -0.932421 2.293989
v -0.628051 -0.807420 1.772320
v -0.625000 -0.932421 2.293989
v -1.250000 -0.932420 1.250649
v 1.250000 -0.692778 1.250650
v 1.250000 -0.932420 1.250650
v -1.250000 -1.057420 1.250151
v -1.250000 -0.817778 1.250151
vn -0.0000 -1.0000 -0.0000
vn -0.0000 -0.0000 -1.0000
vn 0.9580 -0.0000 0.2869
vn -1.0000 -0.0000 -0.0005
vn -1.0000 -0.0000 -0.0010
vn 1.0000 -0.0000 0.0008
vn 1.0000 -0.0000 0.0007
vn 1.0000 -0.0000 -0.0000
vn -0.0000 -0.0000 1.0000
vn -0.0000 1.0000 0.0002
vn -0.0000 1.0000 0.0003
vn 1.0000 -0.0000 -0.0004
vn -1.0000 -0.0000 0.0003
vn -0.0000 1.0000 -0.0000
vn -0.0000 1.0000 -0.0001
vn 1.0000 -0.0000 0.0019
vn 1.0000 -0.0000 0.0014
vn 1.0000 -0.0000 0.0005
vn -1.0000 -0.0000 -0.0006
vn -1.0000 -0.0000 -0.0007
vn 0.6352 0.7476 0.1940
vn 0.4566 -0.5708 -0.6824
vn -0.4566 -0.5708 -0.6824
vn -0.0000 -0.8583 -0.5131
vn -0.9580 -0.0000 0.2869
vn -0.6352 0.7476 0.1940
vn -0.0906 0.9876 0.1281
vn 0.0906 0.9876 0.1281
vn -0.0000 1.0000 0.0001
vn -0.0000 0.9087 0.4174
vn -0.0000 0.9725 0.2330
vn -0.1619 0.8093 0.5647
vn -0.5432 0.6866 0.4831
vn -0.6697 0.6697 0.3209
vn 0.1617 0.8084 0.5660
vn 0.5374 0.6927 0.4810
vn 0.6697 0.6697 0.3209
vn 1.0000 -0.0000 0.0027
vt 0.312376 0.500000
vt 0.249876 0.375000
vt 0.191191 0.992756
vt 0.244982 0.986274
vt -0.000124 0.375000
vt -0.000124 0.500000
vt 0.249876 0.000000
vt 0.191191 0.710090
vt 0.499876 0.000000
vt 0.249876 0.500000
vt 0.312376 0.975000
vt 0.499876 0.475000
vt 0.249876 0.975000
vt 0.249876 1.000000
vt 0.499876 0.500000
vt 0.231056 0.532679
vt 0.175978 0.532679
vt 0.312376 1.000000
vt 0.102317 0.996971
vt 0.071067 0.996971
vt 0.001778 0.864672
vt 0.057444 0.996971
vt 0.001778 0.986274
vt -0.000124 0.125000
vt 0.057444 0.637990
vt 0.281126 0.000000
vt -0.000124 0.000000
vt 0.102317 0.637990
vt 0.281126 0.100000
vt 0.249876 0.100000
vt 0.071067 0.637990
vt 0.213457 0.303277
vt 0.249876 0.475000
vt 0.249876 0.500000
vt 0.231056 0.973305
vt 0.213456 0.308669
vt 0.531126 0.100000
vt 0.499876 0.100000
vt 0.499876 0.600000
vt 0.531126 0.000000
vt 0.499876 0.500000
vt 0.249876 0.000000
vt 0.015501 0.640625
vt 0.179563 0.531250
vt 0.073257 0.752844
vt 0.179563 1.000000
vt 0.234251 1.000000
vt 0.025614 0.752844
vt 0.015501 0.531250
vt 0.234251 0.531250
vt 0.234251 0.859375
vt 0.179563 0.531250
vt 0.168542 0.752715
vt 0.179563 1.000000
vt 0.234251 1.000000
vt 0.216185 0.752715
vt 0.234251 0.531250
vt 0.234251 0.968750
vt 0.234251 0.640625
vt 0.070189 0.531250
vt 0.234251 0.531250
vt 0.015501 0.531250
vt 0.216185 0.752844
vt 0.015501 1.000000
vt 0.015501 0.968750
vt 0.015501 0.531250
vt 0.025614 0.752714
vt 0.015501 1.000000
vt 0.010743 0.973305
vt 0.212109 0.308669
vt 0.249876 0.500000
vt 0.010743 0.532679
vt 0.499876 1.000000
vt 0.499876 0.500000
vt 0.065822 0.973305
vt 0.170892 0.308669
vt 0.499876 0.925000
vt 0.499876 0.425000
vt 0.212108 0.287548
vt 0.249876 0.425000
vt 0.249876 0.400000
vt 0.212108 0.282156
vt 0.195396 0.637990
vt 0.499876 0.400000
vt 0.499876 0.900000
vt 0.249876 0.300000
vt 0.160812 0.637990
vt 0.499876 0.300000
vt 0.499876 0.800000
vt 0.249876 0.200000
vt 0.115939 0.637990
vt 0.499876 0.200000
vt 0.499876 0.700000
vt 0.249876 0.100000
vt 0.155858 0.710090
vt 0.499876 0.100000
vt 0.249876 0.600000
vt 0.249876 0.200000
vt 0.120525 0.710090
vt 0.499876 0.200000
vt 0.249876 0.700000
vt 0.249876 0.300000
vt 0.085191 0.710090
vt 0.499876 0.300000
vt 0.249876 0.800000
vt 0.057960 0.710090
vt 0.213458 0.282156
vt 0.249876 0.400000
vt 0.499876 0.400000
vt 0.249876 0.900000
vt 0.170892 0.073602
vt 0.205684 0.996971
vt 0.001778 0.499868
vt 0.170892 0.001840
vt 0.160812 0.996971
vt 0.001778 0.621469
vt 0.115939 0.996971
vt 0.001778 0.743071
vt 0.312376 0.600000
vt 0.312376 0.700000
vt 0.312376 0.800000
vt 0.312376 0.900000
vt 0.437376 0.800000
vt 0.437376 0.900000
vt 0.374876 0.800000
vt 0.374876 0.900000
vt 0.437376 0.700000
vt 0.374876 0.700000
vt 0.437376 0.600000
vt 0.374876 0.600000
vt 0.437376 0.500000
vt 0.249876 0.125000
vt 0.374876 0.500000
vt 0.249876 0.250000
vt 0.155858 0.992756
vt 0.244982 0.864672
vt 0.120525 0.992756
vt 0.244982 0.743071
vt 0.123380 0.864672
vt 0.123380 0.743071
vt 0.085191 0.992756
vt 0.244982 0.621469
vt 0.123380 0.621469
vt 0.049858 0.992756
vt 0.244982 0.499868
vt 0.172240 0.001840
vt 0.088458 0.001840
vt 0.123380 0.499868
vt 0.129675 0.001840
vt 0.213457 0.287548
vt 0.249876 0.425000
vt 0.088457 0.073602
vt 0.172240 0.073602
vt 0.129675 0.078548
vt 0.175978 0.973305
vt 0.088457 0.308669
vt 0.172240 0.308669
vt 0.168542 0.752844
vt 0.070189 1.000000
vt 0.120900 0.973305
vt 0.129675 0.308669
vt 0.120900 0.752844
vt 0.124876 1.000000
vt 0.065822 0.532679
vt 0.437376 1.000000
vt 0.073257 0.752714
vt 0.070189 1.000000
vt 0.120900 0.532679
vt 0.374876 1.000000
vt 0.120900 0.752715
vt 0.124876 1.000000
vt 0.015501 0.859375
vt 0.070189 0.531250
vt 0.015501 0.750000
vt 0.124876 0.531250
vt 0.234251 0.750000
vt 0.124876 0.531250
vt 0.123380 0.986274
vt -0.000124 0.250000
vt 0.499876 0.975000
vt 0.499876 0.475000
vt 0.437376 0.975000
vt 0.374876 0.975000
vt 0.312376 0.925000
vt 0.374876 0.925000
vt 0.312376 0.950000
vt 0.374876 0.950000
vt 0.437376 0.925000
vt 0.437376 0.950000
vt 0.499876 0.950000
vt 0.499876 0.450000
vt 0.129473 0.227017
vt 0.170690 0.227017
vt 0.129675 0.150309
vt 0.170892 0.150309
vt 0.088256 0.227017
vt 0.172441 0.227017
vt 0.088457 0.150309
vt 0.172240 0.150309
vt 0.213457 0.292940
vt 0.249876 0.450000
vt 0.212109 0.303277
vt 0.249876 0.475000
vt 0.212108 0.292940
vt 0.249876 0.450000
vt 0.499876 0.425000
vt 0.249876 0.925000
vt 0.499876 0.450000
vt 0.249876 0.950000
s 1
usemtl Material
f 25/69/13 26/72/13 27/73/13 28/77/13
f 29/78/14 30/80/14 31/81/14 32/85/14
f 33/86/15 34/89/15 35/92/15 36/95/15
f 37/100/16 38/101/17 31/82/17 30/79/16
f 39/104/18 36/96/19 35/93/20 40/107/20
f 41/111/14 42/113/14 43/114/14 44/117/14
f 45/119/21 46/121/21 47/122/21 48/124/21
f 49/126/22 41/110/22 44/116/23 50/128/23
f 48/124/24 47/122/24 51/131/24 52/133/24
f 53/135/25 50/129/25 44/117/25 43/114/25
f 53/134/26 43/115/26 54/136/26 55/139/26
f 46/120/13 32/84/13 31/83/13 47/123/13
f 47/123/27 31/83/27 38/102/27 51/130/26
f 42/112/26 56/142/26 54/136/26 43/115/26
f 57/145/28 58/147/28 59/148/28 60/151/28
f 60/151/28 59/148/28 61/153/29 62/155/29
f 62/155/29 61/153/29 63/157/18 64/159/30
f 64/159/30 63/157/18 36/97/19 39/105/18
f 27/74/16 65/161/16 66/163/16 28/76/16
f 65/161/16 67/165/16 68/167/31 66/163/16
f 67/165/16 69/169/32 70/171/32 68/167/31
f 69/169/32 71/175/32 72/176/16 70/171/32
f 73/178/33 74/181/33 59/149/33 58/146/33
f 74/179/15 75/182/15 61/154/15 59/150/15
f 75/182/15 76/184/15 63/158/15 61/154/15
f 76/184/15 33/87/15 36/98/15 63/158/15
f 25/68/34 28/77/34 66/164/34 77/186/34
f 77/186/14 66/164/14 68/168/14 78/187/14
f 78/187/14 68/168/14 70/172/14 79/188/14
f 79/188/14 70/172/14 72/177/14 80/189/14
f 62/156/14 81/190/14 82/191/14 60/152/14
f 81/190/14 83/192/14 84/193/14 82/191/14
f 83/192/14 79/188/14 80/189/14 84/193/14
f 64/160/14 85/194/14 81/190/14 62/156/14
f 85/194/14 86/195/14 83/192/14 81/190/14
f 86/195/14 78/187/14 79/188/14 83/192/14
f 39/106/14 87/196/14 85/194/14 64/160/14
f 87/196/14 88/197/14 86/195/14 85/194/14
f 88/197/14 77/186/14 78/187/14 86/195/14
f 40/108/35 89/198/35 87/196/35 39/106/35
f 89/198/36 90/200/36 88/197/36 87/196/36
f 90/200/36 25/68/36 77/186/36 88/197/36
f 67/166/37 65/162/37 91/202/37 92/204/37
f 92/205/21 91/203/21 93/206/21 94/207/21
f 94/207/21 93/206/21 33/88/21 76/185/21
f 69/170/37 67/166/37 92/204/37 95/208/37
f 95/209/21 92/205/21 94/207/21 96/210/21
f 96/210/21 94/207/21 76/185/21 75/183/21
f 71/173/37 69/170/37 95/208/37 97/211/37
f 97/212/21 95/209/21 96/210/21 98/215/21
f 98/215/21 96/210/21 75/183/21 74/180/21
f 99/217/38 71/174/38 97/213/38 100/220/38
f 100/219/39 97/214/39 98/216/39 101/221/39
f 101/221/40 98/216/40 74/181/40 73/178/40
f 51/130/26 38/102/27 102/222/26 103/225/26
f 103/225/26 102/222/26 104/227/26 105/229/26
f 105/229/26 104/227/26 56/142/26 42/112/26
f 53/134/13 55/139/13 106/231/13 107/233/13
f 107/233/13 106/231/13 108/235/13 109/237/13
f 109/237/13 108/235/13 32/84/13 46/120/13
f 48/125/27 52/132/27 110/239/26 45/118/26
f 45/118/26 110/239/26 111/241/41 112/243/41
f 112/243/41 111/241/41 41/110/22 49/126/22
f 50/129/21 53/135/21 107/234/21 49/127/21
f 49/127/21 107/234/21 109/238/21 112/244/21
f 112/244/21 109/238/21 46/121/21 45/119/21
f 52/133/14 51/131/14 103/226/14 110/240/14
f 110/240/14 103/226/14 105/230/14 111/242/14
f 111/242/14 105/230/14 42/113/14 41/111/14
f 65/162/37 27/75/37 26/70/37 91/202/37
f 91/203/21 26/71/21 113/245/21 93/206/21
f 93/206/21 113/245/21 34/90/21 33/88/21
f 114/247/14 115/249/14 106/232/14 55/140/14
f 115/249/14 116/250/14 108/236/14 106/232/14
f 116/250/14 29/78/14 32/85/14 108/236/14
f 40/109/13 35/94/13 34/91/13 89/199/13
f 89/199/13 34/91/13 113/246/13 90/201/13
f 90/201/13 113/246/13 26/72/13 25/69/13
f 84/193/14 80/189/14 117/251/14 118/252/14
f 118/252/14 117/251/14 119/253/14 120/254/14
f 120/254/14 119/253/14 29/78/14 116/250/14
f 82/191/14 84/193/14 118/252/14 121/255/14
f 121/255/14 118/252/14 120/254/14 122/256/14
f 122/256/14 120/254/14 116/250/14 115/249/14
f 60/152/14 82/191/14 121/255/14 57/144/14
f 57/144/14 121/255/14 122/256/14 123/257/14
f 123/257/14 122/256/14 115/249/14 114/247/14
f 104/228/42 124/259/42 125/260/42 56/143/42
f 124/259/43 126/261/43 127/262/43 125/260/43
f 126/261/40 101/221/40 73/178/40 127/262/40
f 102/223/42 128/263/42 124/259/42 104/228/42
f 128/263/43 129/265/43 126/261/43 124/259/43
f 129/265/39 100/219/39 101/221/39 126/261/39
f 38/103/44 37/99/44 128/264/44 102/224/44
f 37/99/45 130/267/45 129/266/45 128/264/45
f 130/267/46 99/217/46 100/220/46 129/266/46
f 56/143/47 125/260/47 131/269/47 54/137/47
f 125/260/48 127/262/48 132/271/48 131/269/48
f 127/262/49 73/178/49 58/146/49 132/271/49
f 55/141/50 54/138/50 131/270/28 114/248/28
f 114/248/28 131/270/28 132/272/28 123/258/28
f 123/258/28 132/272/28 58/147/28 57/145/28
f 71/175/32 99/218/16 133/273/16 72/176/16
f 99/218/16 130/268/16 134/275/16 133/273/16
f 130/268/16 37/100/16 30/79/16 134/275/16
f 80/189/14 72/177/14 133/274/14 117/251/14
f 117/251/14 133/274/14 134/276/14 119/253/14
f 119/253/14 134/276/14 30/80/14 29/78/14
o Cube.009_Cube.010
v -1.052944 -1.877661 1.029550
v -1.052944 -0.877661 1.029550
v -1.052944 -0.877661 0.029550
v -1.052944 -1.877661 0.029550
v -0.052944 -0.877661 0.029550
v -0.052944 -1.877661 0.029550
v -0.052944 -0.877661 1.029550
v -0.052944 -1.877661 1.029550
vn -1.0000 -0.0000 -0.0000
vn -0.0000 -0.0000 -1.0000
vn 1.0000 -0.0000 -0.0000
vn -0.0000 -0.0000 1.0000
vn -0.0000 -1.0000 -0.0000
vn -0.0000 1.0000 -0.0000
vt 0.750000 0.500000
vt 0.503500 0.993000
vt 0.750000 1.000000
vt 0.746500 0.993000
vt 0.500000 1.000000
vt 0.750000 1.000000
vt 0.746500 0.507000
vt 0.500000 0.500000
vt 0.750000 0.500000
vt 0.503500 0.507000
vt 0.500000 1.000000
vt 0.750000 1.000000
vt 0.503500 0.507000
vt 0.500000 0.500000
vt 0.750000 0.501096
vt 0.746500 0.507000
vt 0.500001 0.998904
vt 1.000000 1.000000
vt 0.503500 0.993000
vt 0.500000 0.500000
vt 1.000000 0.500000
vt 0.746500 0.993000
s 0
usemtl Material
f 135/277/51 136/279/51 137/281/51 138/284/51
f 138/285/52 137/282/52 139/287/52 140/290/52
f 140/291/53 139/288/53 141/293/53 142/296/53
f 142/297/54 141/294/54 136/279/54 135/277/54
f 138/286/55 140/292/55 142/298/55 135/278/55
f 139/289/56 137/283/56 136/280/56 141/295/56
o Cube.011_Cube.012
v 0.044731 -1.090470 -0.032576
v 0.044731 -0.090470 -0.032576
v 0.044731 -0.090470 -1.032576
v 0.044731 -1.090470 -1.032576
v 1.044731 -0.090470 -1.032576
v 1.044731 -1.090470 -1.032576
v 1.044731 -0.090470 -0.032576
v 1.044731 -1.090470 -0.032576
vn -1.0000 -0.0000 -0.0000
vn -0.0000 -0.0000 -1.0000
vn 1.0000 -0.0000 -0.0000
vn -0.0000 -0.0000 1.0000
vn -0.0000 -1.0000 -0.0000
vn -0.0000 1.0000 -0.0000
vt 0.750000 0.500000
vt 0.503500 0.993000
vt 0.750000 1.000000
vt 0.746500 0.993000
vt 0.500000 1.000000
vt 0.750000 1.000000
vt 0.746500 0.507000
vt 0.500000 0.500000
vt 0.750000 0.500000
vt 0.503500 0.507000
vt 0.500000 1.000000
vt 0.750000 1.000000
vt 0.503500 0.507000
vt 0.500000 0.500000
vt 0.750000 0.501096
vt 0.746500 0.507000
vt 0.500001 0.998904
vt 1.000000 1.000000
vt 0.503500 0.993000
vt 0.500000 0.500000
vt 1.000000 0.500000
vt 0.746500 0.993000
s 0
usemtl Material
f 143/299/57 144/301/57 145/303/57 146/306/57
f 146/307/58 145/304/58 147/309/58 148/312/58
f 148/313/59 147/310/59 149/315/59 150/318/59
f 150/319/60 149/316/60 144/301/60 143/299/60
f 146/308/61 148/314/61 150/320/61 143/300/61
f 147/311/62 145/305/62 144/302/62 149/317/62
o Cube.012_Cube.013
v -1.017072 -1.090470 0.547443
v -1.017072 -0.090470 0.547443
v -1.017072 -0.090470 -0.452557
v -1.017072 -1.090470 -0.452557
v -0.017072 -0.090470 -0.452557
v -0.017072 -1.090470 -0.452557
v -0.017072 -0.090470 0.547443
v -0.017072 -1.090470 0.547443
vn -1.0000 -0.0000 -0.0000
vn -0.0000 -0.0000 -1.0000
vn 1.0000 -0.0000 -0.0000
vn -0.0000 -0.0000 1.0000
vn -0.0000 -1.0000 -0.0000
vn -0.0000 1.0000 -0.0000
vt 0.750000 0.500000
vt 0.503500 0.993000
vt 0.750000 1.000000
vt 0.746500 0.993000
vt 0.500000 1.000000
vt 0.750000 1.000000
vt 0.746500 0.507000
vt 0.500000 0.500000
vt 0.750000 0.500000
vt 0.503500 0.507000
vt 0.500000 1.000000
vt 0.750000 1.000000
vt 0.503500 0.507000
vt 0.500000 0.500000
vt 0.750000 0.501096
vt 0.746500 0.507000
vt 0.500001 0.998904
vt 1.000000 1.000000
vt 0.503500 0.993000
vt 0.500000 0.500000
vt 1.000000 0.500000
vt 0.746500 0.993000
s 0
usemtl Material
f 151/321/63 152/323/63 153/325/63 154/328/63
f 154/329/64 153/326/64 155/331/64 156/334/64
f 156/335/65 155/332/65 157/337/65 158/340/65
f 158/341/66 157/338/66 152/323/66 151/321/66
f 154/330/67 156/336/67 158/342/67 151/322/67
f 155/333/68 153/327/68 152/324/68 157/339/68
o Cube.013_Cube.014
v 0.027511 -1.090470 1.035765
v 0.027511 -0.090470 1.035765
v 0.027511 -0.090470 0.035765
v 0.027511 -1.090470 0.035765
v 1.027511 -0.090470 0.035765
v 1.027511 -1.090470 0.035765
v 1.027511 -0.090470 1.035765
v 1.027511 -1.090470 1.035765
vn -1.0000 -0.0000 -0.0000
vn -0.0000 -0.0000 -1.0000
vn 1.0000 -0.0000 -0.0000
vn -0.0000 -0.0000 1.0000
vn -0.0000 -1.0000 -0.0000
vn -0.0000 1.0000 -0.0000
vt 0.750000 0.500000
vt 0.503500 0.993000
vt 0.750000 1.000000
vt 0.746500 0.993000
vt 0.500000 1.000000
vt 0.750000 1.000000
vt 0.746500 0.507000
vt 0.500000 0.500000
vt 0.750000 0.500000
vt 0.503500 0.507000
vt 0.500000 1.000000
vt 0.750000 1.000000
vt 0.503500 0.507000
vt 0.500000 0.500000
vt 0.750000 0.501096
vt 0.746500 0.507000
vt 0.500001 0.998904
vt 1.000000 1.000000
vt 0.503500 0.993000
vt 0.500000 0.500000
vt 1.000000 0.500000
vt 0.746500 0.993000
s 0
usemtl Material
f 159/343/69 160/345/69 161/347/69 162/350/69
f 162/351/70 161/348/70 163/353/70 164/356/70
f 164/357/71 163/354/71 165/359/71 166/362/71
f 166/363/72 165/360/72 160/345/72 159/343/72
f 162/352/73 164/358/73 166/364/73 159/344/73
f 163/355/74 161/349/74 160/346/74 165/361/74
o Cube.014_Cube.015
v -0.487167 -0.084418 0.498075
v -0.487167 0.915582 0.498075
v -0.487167 0.915582 -0.501925
v -0.487167 -0.084418 -0.501925
v 0.512833 0.915582 -0.501925
v 0.512833 -0.084418 -0.501925
v 0.512833 0.915582 0.498075
v 0.512833 -0.084418 0.498075
vn -1.0000 -0.0000 -0.0000
vn -0.0000 -0.0000 -1.0000
vn 1.0000 -0.0000 -0.0000
vn -0.0000 -0.0000 1.0000
vn -0.0000 -1.0000 -0.0000
vn -0.0000 1.0000 -0.0000
vt 0.750000 0.500000
vt 0.503500 0.993000
vt 0.750000 1.000000
vt 0.746500 0.993000
vt 0.500000 1.000000
vt 0.750000 1.000000
vt 0.746500 0.507000
vt 0.500000 0.500000
vt 0.750000 0.500000
vt 0.503500 0.507000
vt 0.500000 1.000000
vt 0.750000 1.000000
vt 0.503500 0.507000
vt 0.500000 0.500000
vt 0.750000 0.501096
vt 0.746500 0.507000
vt 0.500001 0.998904
vt 1.000000 1.000000
vt 0.503500 0.993000
vt 0.500000 0.500000
vt 1.000000 0.500000
vt 0.746500 0.993000
s 0
usemtl Material
f 167/365/75 168/367/75 169/369/75 170/372/75
f 170/373/76 169/370/76 171/375/76 172/378/76
f 172/379/77 171/376/77 173/381/77 174/384/77
f 174/385/78 173/382/78 168/367/78 167/365/78
f 170/374/79 172/380/79 174/386/79 167/366/79
f 171/377/80 169/371/80 168/368/80 173/383/80
o Cube.006
v 1.250000 -3.067778 -1.250001
v -1.250000 -3.067778 -1.250001
v -1.249999 -0.567777 -1.250000
v 1.250001 -0.567777 -1.249999
v 1.250000 -3.067777 -3.250001
v -1.250000 -3.067777 -3.250001
v -1.249999 -0.567776 -3.250000
v 1.250001 -0.567776 -3.249999
vn -0.0000 -0.0000 1.0000
vn -0.0000 -0.0000 -1.0000
vn 1.0000 -0.0000 -0.0000
vn -0.0000 -1.0000 -0.0000
vn -0.0000 1.0000 -0.0000
vn -1.0000 -0.0000 -0.0000
vt 0.975000 0.975000
vt 0.296875 -0.000000
vt 0.000000 0.500000
vt 0.525000 0.975000
vt 0.000000 -0.000000
vt 0.453125 -0.000000
vt 0.500000 1.000000
vt 0.250000 0.593750
vt 0.453125 0.500000
vt 1.000000 1.000000
vt 0.296875 0.500000
vt 0.500000 0.593750
vt 0.500000 0.000000
vt 0.250000 0.500000
vt -0.000000 0.500000
vt 0.250000 0.000000
vt -0.000000 1.000000
vt 0.250000 0.968750
vt 0.250000 0.500000
vt 0.250000 1.000000
vt 0.500000 0.500000
vt 0.500000 0.968750
s 1
usemtl Material
f 175/387/81 178/396/81 177/393/81 176/390/81
f 179/400/82 180/401/82 181/403/82 182/406/82
f 175/388/83 179/399/83 182/407/83 178/397/83
f 176/391/84 180/402/84 179/400/84 175/389/84
f 178/398/85 182/408/85 181/404/85 177/394/85
f 177/395/86 181/405/86 180/402/86 176/392/86
